<!--?xml version="1.0" encoding="iso-8859-1"?-->
<!-- Generator: Adobe Illustrator 21.1.0, SVG Export Plug-In . SVG Version: 6.00 Build 0)  -->
<svg version="1.1" id="_x34_" xmlns="http://www.w3.org/2000/svg" xmlns:xlink="http://www.w3.org/1999/xlink" x="0px" y="0px" viewBox="0 0 512 512" style="width: 720px;" xml:space="preserve">
<style type="text/css">
 .st0{fill:#231815;}
</style>

<g id="svgID1">
	<g>
		<path class="st0" d="M180.581,66.244c15.243,0.871,30.618,2.363,45.65,5.082c14.538,2.63,33.918,6.231,45.857,15.267
			c6.139,4.647,4.743,3.868,10.299,9.158c1.372,1.306,6.431,11.442,8.723,10.561c2.925-1.123,1.121-5.625,0.308-7.618
			c-4.933-12.091-17.081-18.549-28.529-23.103c-30.072-11.963-62.128-9.365-93.396-14.667c-5.597-0.949-17.112-3.143-12.338-11.101
			c1.999-3.331,5.684-5.4,9.063-7.063c7.314-3.602,15.31-5.383,23.256-6.937c2.199-0.43,17.195-3.416,13.481-6.893
			c-4.02-3.763-17.161,1.026-21.189,2.25c-7.659,2.326-15.92,5.157-22.463,9.901c-6.35,4.604-11.956,13.903-3.81,19.72
			C162.281,65.647,172.606,65.71,180.581,66.244z" style="opacity: 1;"></path>
		<path class="st0" d="M217.065,72.328c-4.365-2.135-8.959-3.783-13.738-4.69c-1.201-0.228-8.618-0.504-8.38-2.123
			c0.523-3.567,13.151-0.371,14.67,0.084c5.864,1.756,11.319,4.614,16.525,7.792c9.693,5.916,18.326,13.581,28.605,18.532
			c4.686,2.257,9.727,3.952,14.936,4.405c1.832,0.159,11.798,0.684,12.704-0.577c-1.203,1.675-5.88,2.142-7.681,2.477
			c-3.392,0.63-6.836,0.834-10.272,0.481c-6.224-0.638-12.041-2.976-17.434-6.069C236.518,86.627,227.646,78.19,217.065,72.328z" style="opacity: 1;"></path>
		<path class="st0" d="M244.598,78.98c-0.264-1.326-0.783-5.485,1.577-5.509c2.369-0.024,1.913,5.084,2.206,6.84
			c0.163,0.974,2.287,13.996,2.745,13.695c-2.585,1.697-5.626-4.621-5.994-5.984C244.355,85.135,244.565,81.947,244.598,78.98z" style="opacity: 1;"></path>
		<path class="st0" d="M260.082,84.6c-0.211-2.029,1.41-5.463,3.649-3.108c0.396,0.416,0.029,4.515,0.081,5.315
			c0.114,1.762,0.195,3.527,0.002,5.289c-0.348,3.179-0.576,6.855-3.104,2.286C259.04,91.366,259.486,87.872,260.082,84.6z" style="opacity: 1;"></path>
		<path class="st0" d="M209.882,12.78c-1.258,3.702-2.237,7.719-4.145,11.16c-1.167,2.104-4.06,6.088-3.936,1.425
			c0.085-3.227,2.747-7.795,3.803-10.887c1.422-4.161,2.864-8.745,6.276-11.743c7.125-6.259,15.865-0.732,19.693,6.121
			c1.718,3.076,2.802,6.481,4.585,9.521c0.999,1.702,2.166,3.339,3.747,4.554c0.885,0.681,3.22,1.269,3.809,2.192
			c0.18,0.288-4.411-0.701-4.627-0.802c-1.956-0.917-3.607-2.44-5.025-4.04c-3.033-3.423-4.704-7.751-7.474-11.346
			C220.568,1.121,213.219,5.039,209.882,12.78z" style="opacity: 1;"></path>
		<path class="st0" d="M252.35,23.563c-2.721,1.042-7.594,3.972-2.549,5.702c3.26,1.118,7.242-1.299,9.601-3.294
			c5.925-5.012,8.215-12.968,13.79-18.281c7.579-7.222,16.998-4.257,22.563,3.656c2.569,3.653,4.422,7.796,6.149,11.895
			c1.304,3.096,2.28,7.788,4.59,10.271c2.865,3.08,4.341,0.965,3.826-2.461c-0.507-3.375-2.368-6.704-4.083-9.603
			c-3.945-6.667-8.555-15.844-15.691-19.593c-6.921-3.636-14.802-1.038-20.297,3.868C264.314,11.021,260.071,20.669,252.35,23.563z" style="opacity: 1;"></path>
		<path class="st0" d="M330.16,49.698c-3.576-2.716-7.231-5.322-10.838-7.996c-1.597-1.184-8.181-4.864-4.949-6.488
			c3.463-1.741,9.783,3.971,12.25,5.746c4.782,3.438,9.484,7.051,13.97,10.87c8.097,6.894,15.511,14.944,21.53,23.721
			c2.801,4.085,5.234,8.376,7.07,12.982c0.845,2.122,3.946,8.938,2.29,11.05c0.652-0.832-6.384-11.168-7.251-12.339
			c-3.151-4.253-6.665-8.254-10.036-12.331C346.787,65.95,338.846,57.439,330.16,49.698z" style="opacity: 1;"></path>
		<path class="st0" d="M193.13,75.559c-0.907-0.774-12.106-8.01-10.779-9.953c2.581-3.777,16.89,11.072,18.335,12.811
			c5.226,6.289,8.932,14.01,11.348,21.789c0.387,1.247,3.694,13.165,2.411,13.437c-0.568,0.12-7.353-15.399-8.212-17.19
			C202.615,88.914,198.773,81.811,193.13,75.559z" style="opacity: 1;"></path>
		<path class="st0" d="M271.92,121.005c-4.171-4.314-2.118-10.207-2.133-15.394c-0.007-2.506-5.1-9.198,0.064-6.645
			c5.879,2.907,2.056,11.241,3.097,16.149c0.348,1.642,1.106,4.582,3.422,3.638c1.97-0.804,1.566-4.582,4.375-5.411
			c11.78-3.478,2.004,19.885,9.367,21.494c5.232,1.143,6.084-9.109,6.072-12.185c-0.004-1.034-1.672-14.149-1.576-14.164
			c1.144-0.178,3.492,9.607,3.741,10.711c0.853,3.79,1.409,8.119,0.425,11.942c-2.195,8.531-12.749,11.353-15.584,1.461
			c-0.492-1.718,0.776-15.134-0.984-15.291c-1.445-0.129-1.482,2.265-2.264,3.194C277.864,122.973,274.294,123.357,271.92,121.005z" style="opacity: 1;"></path>
		<path class="st0" d="M279.624,41.188c-8.479,0.994-8.693-16.106-0.619-16.028c7.422,0.071,7.173,14.961,1.226,17.244" style="opacity: 1;"></path>
		<path class="st0" d="M216.441,36.936c-6.699-1.167-5.901-16.179,1.246-15.806
			C224.403,21.482,223.419,37.243,216.441,36.936z" style="opacity: 1;"></path>
		<path class="st0" d="M210.974,58.198c-3.055-1.184-5.99-2.989-5.408-6.561C210.785,47.909,212.502,53.13,210.974,58.198
			z" style="opacity: 1;"></path>
		<path class="st0" d="M240.742,59.414c-6.263,1.393-3.432-6.896,1.517-6.086
			C248.168,54.297,242.757,58.743,240.742,59.414z" style="opacity: 1;"></path>
		<path class="st0" d="M168.502,157.288c6.31-4.47,13.881-8.251,19.185-13.947c1.807-1.94,4.365-6.485,7.352-7.016
			c3.615-0.643-0.835,4.427-1.684,5.79c-4.271,6.853-10.656,10.496-17.18,14.92c-7.192,4.878-14.231,9.873-22.151,13.545
			c-12.558,5.823-34.288,11.808-46.906,3.323c-6.968-4.685-7.915-12.847-7.513-20.604c0.23-4.426,0.848-8.851,1.811-13.178
			c0.202-0.908,2.498-7.736,2.548-7.678c1.096,1.247-0.813,8.188-0.935,9.704c-0.362,4.528-0.436,9.122-0.006,13.648
			c0.927,9.759,5.599,15.608,15.647,16.52C136.147,173.902,154.077,166.475,168.502,157.288z" style="opacity: 1;"></path>
		<path class="st0" d="M91.259,104.408c3.48-0.769,7.507-1.179,10.863,0.323c1.323,0.592,6.454,4.575,4.424,6.63
			c-0.735,0.744-5.88-3.625-7.604-3.955c-3.952-0.756-8.321,0.622-12.04,1.82c-8.507,2.741-16.126,5.2-25.237,4.618
			c-4.187-0.268-8.338-1.059-12.203-2.726c-2.136-0.921-8.049-3.546-8.338-6.379c-0.09,1.106,8.717,3.756,10.116,4.032
			c4.587,0.906,9.405,1.018,14.061,0.843C74.355,109.275,82.424,105.838,91.259,104.408z" style="opacity: 1;"></path>
		<path class="st0" d="M35.399,121.531c-1.11-0.918-8.969-7.981-6.725-10.244c1.607-1.62,9.328,7.922,11.056,9.253
			c4.863,3.745,10.092,7.19,15.579,9.941c1.143,0.573,13.079,6.045,13.523,5.35c-0.944,1.48-8.05,0.24-9.483-0.005
			c-3.29-0.563-6.388-1.669-9.337-3.231C44.641,129.749,39.652,125.868,35.399,121.531z" style="opacity: 1;"></path>
		<path class="st0" d="M69.335,184.973c-3.542-9.198-2.513-17.999-2.618-27.569c-0.042-3.816-0.158-7.605,0.085-11.42
			c0.153-2.405-0.048-6.977,1.388-9.076c2.826-4.131,3.16,5.12,3.348,7.075c0.608,6.332,0.855,12.846,0.595,19.204
			c-0.713,17.436,6.104,34.323,22.892,41.824c16.257,7.264,36.73,8.133,54.052,4.853c10.131-1.919,20.11-4.827,29.673-8.679
			c1.82-0.733,22.563-11.108,22.883-10.623c1.335,2.021-24.628,16.003-27.492,17.341c-12.457,5.816-25.853,9.898-39.651,10.436
			C108.704,219.343,78.37,212.404,69.335,184.973z" style="opacity: 1;"></path>
		<path class="st0" d="M207.579,173.991c3.717-15.351,8.009-30.098,8.427-45.956c0.077-2.925,0.929-3.247,2.687-0.447
			c1.922,3.063,2.106,7.357,2.024,10.848c-0.214,9.16-2.973,18.417-5.24,27.237c-2.326,9.053-4.846,17.792-7.928,26.609
			c-1.236,3.535-1.804,6.695-2.083,10.401c-0.349,4.622-1.818,7.994-3.674,12.178c-6.863,15.467-3.101,36.766,3.528,51.666
			c3.985,8.957,9.796,17.054,16.036,24.57c1.277,1.538,16.76,17.128,16.618,17.344c-1.664,2.54-25.108-20.656-27.167-23.033
			c-9.417-10.872-15.879-23.48-18.227-37.74c-1.156-7.021-1.064-14.122-0.519-21.199c0.58-7.526,3.644-12.824,5.995-19.717
			c0.977-2.865,0.725-5.853,1.246-8.803c0.544-3.08,1.693-6.032,2.867-8.916C204.203,184.035,206.086,179.177,207.579,173.991z" style="opacity: 1;"></path>
		<path class="st0" d="M371.88,169.624c-5.567-5.238-11.557-10.041-18-14.163c-2.767-1.77-5.61-3.414-8.521-4.936
			c-1.07-0.56-5.266-1.865-5.524-3.237c-0.199-1.058,5.983,0.488,6.488,0.652c3.358,1.092,6.454,2.794,9.44,4.652
			c6.295,3.918,12.183,8.527,17.582,13.604c10.069,9.468,20.786,22.007,22.079,36.378c1.435,15.948-12.422,23.829-26.16,26.281
			c-6.669,1.19-13.53,1.901-20.299,2.12c-5.293,0.172-15.894,0.897-19.913-3.557c1.25,1.629,8.909,1.6,10.816,1.632
			c5.281,0.089,10.579-0.639,15.774-1.51c9.592-1.609,20.835-2.845,28.75-9.03C401.591,205.072,382.759,180.575,371.88,169.624z" style="opacity: 1;"></path>
		<path class="st0" d="M374.076,101.209c-1.861,8.707,0.416,15.708,8.765,19.302c3.923,1.689,7.755,3.536,11.127,6.198
			c3.01,2.375,4.086,4.639,5.941,7.745c4.441,7.434,11.923,13.247,17.162,20.158c5.929,7.822,10.541,16.629,13.634,25.946
			c5.872,17.693,7.389,37.129-3.135,53.372c-5.176,7.989-12.19,15.207-20.995,19.076c-9.052,3.977-19.267,5.133-28.914,6.921
			c-9.642,1.787-19.605,0.776-29.372,1.266c-1.645,0.082-20.17,0.706-15.005,6.449c1.585,1.762,4.831,0.617,6.719,0.304
			c4.653-0.77,9.439-0.83,14.138-1.141c9.24-0.611,18.311-1.73,27.381-3.599c7.839-1.616,15.881-2.923,23.409-5.712
			c9.116-3.377,16.34-9.483,22.301-17.067c11.315-14.398,13.187-30.391,10.342-47.932c-1.672-10.31-4.83-20.367-9.587-29.675
			c-4.728-9.251-11.373-16.682-17.798-24.719c-5.951-7.444-10.041-16.191-17.949-21.765c-4.07-2.869-6.115-6.036-9.168-9.815
			C380.823,103.739,377.726,101.542,374.076,101.209z" style="opacity: 1;"></path>
		<path class="st0" d="M32.887,90.145c0.82,2.184,1.822,4.604,1.894,6.972c-0.187-0.185-0.374-0.369-0.562-0.554
			c-0.042,0.085,0.033,0.846,0.04,1.016c-0.112-0.09-0.24-0.152-0.383-0.187c1.898-0.964,2.462,1.898-0.093,1.841
			c-2.744-0.061-3.485-5.876-4.12-7.752c-1.625-4.799-2.931-9.572-2.537-14.702c0.135-1.761,3.319-13.658,7.23-10.99
			c-1.427-0.974-2.886,9.24-2.907,10.068C31.332,80.662,31.845,85.457,32.887,90.145z" style="opacity: 1;"></path>
		<path class="st0" d="M57.527,65.543c1.469,0.852,11.616,2.597,7.654,5.048c-3.956,2.448-11.441-2.843-12.876-6.258
			c-1.986-4.724-0.208-10.322,1.97-14.655c0.629-1.252,7.775-12.099,10.335-8.754c-1.008-1.311-6.929,11.524-7.313,12.607
			c-0.755,2.128-1.558,4.374-1.591,6.659C55.697,60.843,56.927,66.083,57.527,65.543z" style="opacity: 1;"></path>
		<path class="st0" d="M75.428,49.924c-1.11-1.489-7.496-8.02-4.434-9.257c3.055-1.233,9.398,10.459,10.13,12.479
			c1.82,5.022,0.682,10.528-3.036,14.394c-1.726,1.794-3.867,3.119-6.346,3.526c-1.062,0.174-6.18,0.327-6.44-1.64
			c0.059,0.445,5.605-0.935,6.102-1.218c2.14-1.221,3.972-3.521,5.063-5.694C78.59,58.285,77.594,53.918,75.428,49.924z" style="opacity: 1;"></path>
		<path class="st0" d="M53.981,77.444c-4.973,0.028-10.063-0.205-14.93-1.309c-1.129-0.256-5.637-0.959-6.194-2.331
			c-1.126-2.777,7.375-0.873,8.666-0.692c6.158,0.865,12.322,0.888,18.528,0.762c11.038-0.224,21.826,1.563,32.826,1.551
			c5.662-0.006,11.503-0.473,16.833-2.512c1.638-0.627,2.082-0.855,2.869-1.906c0.207-0.276,1.428-4.488,1.646-4.217
			c0.383,0.478,0.168,5.216-0.126,5.743c-0.903,1.619-5.072,3.19-6.659,3.875c-5.312,2.293-11.147,3.154-16.896,3.225
			c-6.955,0.085-13.768-1.246-20.69-1.625C64.568,77.719,59.27,77.682,53.981,77.444z" style="opacity: 1;"></path>
		<path class="st0" d="M92.543,59.101c-1.415,0.328-8.792,1.907-9.614-0.739c-0.731-2.353,11.113-3.185,13.064-3.55
			c4.451-0.831,10.402-1.456,14.5,0.939c1.864,1.09,3.087,2.642,3.539,4.802c0.286,1.367,0.389,6.087-1.209,6.721
			c-0.088,0.035-1.029-4.627-1.318-5.211c-1.051-2.119-2.413-2.638-4.67-3.117C102.189,57.959,97.213,58.682,92.543,59.101z" style="opacity: 1;"></path>
		<path class="st0" d="M112.661,83.98c-0.365-1.327-2.25-7.29,0.474-7.734c2.548-0.415,3.377,8.598,3.646,10.12
			c0.678,3.84,0.821,8.271-0.728,11.956c-0.721,1.716-1.855,3.641-3.579,4.549c-0.303,0.16-4.111,1.274-3.653,0.32
			c0.549-1.143,2.124-1.877,2.76-3.19c0.522-1.078,0.615-2.568,0.803-3.715C113.05,92.207,113.059,88.086,112.661,83.98z" style="opacity: 1;"></path>
		<path class="st0" d="M49.88,89.465c-4.185-0.432-8.384-0.839-12.545-1.472c-1.338-0.204-4.868-0.248-5.898-1.323
			c-2.42-2.526,5.01-2.145,6.48-2.028c5.741,0.456,11.481,1.257,17.208,1.878c10.263,1.114,20.544,2.721,30.881,2.872
			c4.581,0.067,9.145-0.1,13.681-0.765c1.219-0.179,8.326-0.824,8.758-1.382c-2.364,3.05-10.183,4.317-13.803,5.076
			c-5.008,1.049-10.077,1.341-15.183,1.129C69.522,93.038,59.67,91.087,49.88,89.465z" style="opacity: 1;"></path>
		<path class="st0" d="M106.701,116.444c-0.704-1.199-2.078-4.544,0.274-4.809c1.766-0.199,3.257,4.02,3.612,5.311
			c0.694,2.526,0.374,5.298-1.187,7.495c-0.75,1.055-4.067,4.15-5.534,2.723C103.82,127.119,106.958,118.001,106.701,116.444z" style="opacity: 1;"></path>
		<path class="st0" d="M313.245,217.117c1.734,0.576,8.997,4.507,7.212,7.569c-1.15,1.973-6.992-3.874-9.119-4.496
			c-3.961-1.159-9.544-1.002-13.115,1.213c-1.635,1.014-2.818,2.384-3.26,4.281c-0.432,1.859,1.517,5.613,0.772,7.059
			c-0.509,0.988-3.863-6.706-3.895-7.433c-0.132-2.968,1.279-5.499,3.639-7.26C300.371,214.4,307.898,214.706,313.245,217.117z" style="opacity: 1;"></path>
		<path class="st0" d="M297.882,232.568c1.642-1.291,5.262-2.136,4.075,1.052c-1.104,2.964-6.887,3.7-9.267,3.179
			c-1.779-0.389-6.622-3.046-4.14-4.59C290.152,231.211,295.819,232.983,297.882,232.568z" style="opacity: 1;"></path>
		<path class="st0" d="M278.442,231.386c1.713-2.682,8.138-3.635,9.699-0.146c1.789,3.999-5.05,0.305-6.805,2.073
			c-2.688,2.708,0.682,9.518,2.5,11.881c1.395,1.814,3.163,3.263,5.233,4.23c1.217,0.569,5.038,0.739,5.806,1.695
			c0.519,0.645-7.501,0.976-8.478,0.693c-2.647-0.768-4.858-2.454-6.501-4.644C276.852,243.111,274.789,235.723,278.442,231.386z" style="opacity: 1;"></path>
		<path class="st0" d="M276.566,250.6c-0.384-2.111,2.31-8.561,5.364-6.348c1.57,1.138,0.338,1.564-0.212,2.73
			c-0.887,1.882-2.083,1.539-1.435,4.163c0.872,3.536,4.84,7.075,7.375,9.351c1.517,1.362,6.482,3.604,7.155,5.21
			c0.366,0.678-4.587,0.014-5.048-0.101c-2.398-0.602-4.449-1.642-6.363-3.211C279.94,259.557,276.87,255.181,276.566,250.6z" style="opacity: 1;"></path>
		<path class="st0" d="M284.963,271.033c-3.938-2.942-6.235-6.907-7.86-11.441c1.599-0.313,6.326-0.907,6.658,1.513
			c-0.012-0.091-1.422,1.21-1.411,1.876c0.024,1.469,3.38,4.15,4.29,4.888c2.835,2.297,6.208,3.673,9.702,4.618
			c7.076,1.915,14.491,1.813,21.708,0.838c1.688-0.228,13.77-2.013,13.649-4.064c0.171,2.895-7.034,5.453-9.146,6.281
			c-4.242,1.664-8.672,2.602-13.227,2.785C300.632,278.677,291.811,276.559,284.963,271.033z" style="opacity: 1;"></path>
		<path class="st0" d="M310.097,76.739c0.149-1.827-0.54-10.229,1.962-9.511c3.599,1.034,1.264,10.617,1.287,13.218
			c0.017,1.938,0.844,7.387,3.717,6.305c3.51-1.322,2.126-9.309,4.823-10.945c0.268-0.176,0.494,8.691,0.077,10.165
			c-0.899,3.178-3.172,6.296-6.919,5.23C308.674,89.389,309.07,81.722,310.097,76.739z" style="opacity: 1;"></path>
		<path class="st0" d="M239.941,155.08c-0.038-1.558-0.4-8.678,1.989-8.97c2.736-0.334,1.446,9.602,1.6,11.164
			c0.327,3.322,1.495,7.083,5.018,8.389c4.995,1.853,3.533-3.516,6.51-4.777c0.764-0.323-0.584,6.524-1.263,7.259
			c-2.209,2.391-5.413,2.234-8.137,0.828C240.241,166.179,239.357,160.524,239.941,155.08z" style="opacity: 1;"></path>
		<path class="st0" d="M215.702,292.495c-5.841-7.179-15.085-4.191-19.458,2.652c-5.038,7.883-7.363,18.902-9.751,27.875
			c-4.52,16.981-2.697,33.08,3.392,49.348c3.162,8.446,6.379,17.145,11.833,24.426c5.675,7.576,13.663,12.957,20.56,19.318
			c11.038,10.18,22.175,30.126,10.885,44.175c-10.936,13.608-29.235,7.795-43.718,11.866c-2.266,0.637-12.098,2.492-12.098,2.492
			c-0.396,3.216,6.71,1.346,8.719,1.12c8.831-0.997,17.549-2.314,26.413-2.99c9.178-0.7,18.83-2.373,24.773-10.16
			c4.693-6.149,5.399-14.613,4.329-22.039c-2.934-20.365-19.505-29.622-32.147-43.63c-7.196-7.974-10.369-18.22-13.353-28.332
			c-2.851-9.661-4.587-19.593-4.679-29.684c-0.095-10.418,3.179-19.909,7.465-29.276c2.04-4.457,4.531-8.418,8.305-11.637
			C208.844,296.594,215.019,294.413,215.702,292.495z" style="opacity: 1;"></path>
		<path class="st0" d="M207.85,480.136c2.153-0.474,9.243-2.519,11.248-0.578c1.95,1.888-9.883,3.136-11.44,3.483
			c-5.885,1.309-11.78,2.968-17.486,4.909c-1.251,0.426-14.579,4.632-14.643,5.43c0.124-1.526,5.334-4.247,6.493-4.992
			c2.576-1.657,5.253-2.989,8.126-4.062C195.821,482.205,201.865,480.979,207.85,480.136z" style="opacity: 1;"></path>
		<path class="st0" d="M212.943,489.824c1.244-0.41,10.415-3.305,11.174-0.607c0.34,1.209-12.793,4.128-14.403,4.755
			c-1.88,0.731-27.121,10.476-27.202,9.795c-0.169-1.424,11.54-6.989,13.026-7.701C201.079,493.41,206.974,491.291,212.943,489.824z
			" style="opacity: 1;"></path>
		<path class="st0" d="M278.178,336.309c1.514-2.949,3.54-5.29,6.247-7.181c1.83-1.279,4.656-2.324,1.742-4.043
			c-6.4-3.776-13.616,6.217-15.567,10.714c-6.63,15.28-4.152,34.364-1.487,50.285c2.692,16.082,9.754,30.98,10.852,47.359
			c1.095,16.32-2.95,32.457-13.536,45.164c-11.11,13.336-25.698,17.49-41.689,22.377c-1.587,0.485-17.432,6.662-11.486,8.467
			c1.9,0.577,5.101-0.555,6.946-0.941c3.823-0.8,7.618-1.784,11.367-2.875c15.792-4.598,28.808-12.523,39.013-25.559
			c9.355-11.949,13.84-26.636,13.619-41.736c-0.244-16.652-7.085-31.478-9.477-47.677c-1.389-9.406-1.974-18.999-1.665-28.503
			C273.336,353.619,274.01,343.963,278.178,336.309z" style="opacity: 1;"></path>
		<path class="st0" d="M337.602,324.908c-3.462-2.454-7.712-4.176-11.981-4.352c-1.64-0.068-8.145,0.134-7.886,2.85
			c0.157,1.651,5.863,2.635,7.239,3.154c4.158,1.569,7.944,3.975,11.232,6.957c14.674,13.307,18.031,34.266,19.207,53.087
			c2.218,35.498-9.999,86.813,26.366,109.419c16.968,10.548,37.164,6.686,55.698,12.414c3.164,0.978,6.248,2.301,9.433,3.195
			c3.377,0.949,4.564,0.086,2.385-2.868c-4.566-6.188-14.344-8.513-21.438-9.789c-9.072-1.633-17.992-0.26-27.058-1.176
			c-8.428-0.851-16.799-4.775-23.094-10.415c-10.794-9.671-15.12-24.059-16.959-37.994c-2.999-22.721,0.608-45.492-0.334-68.27
			C359.558,360.531,355.648,337.657,337.602,324.908z" style="opacity: 1;"></path>
		<path class="st0" d="M433.072,494.984c-1.429-0.205-12.08-0.675-12.339-2.945c-0.324-2.833,16.707,0.658,18.541,1.066
			c6.947,1.546,13.723,4.23,20.289,6.935c1.988,0.819,9.699,2.734,10.601,4.812c-0.214-0.492-15.145-2.83-16.707-3.326
			C446.646,499.369,440.053,496.596,433.072,494.984z" style="opacity: 1;"></path>
		<path class="st0" d="M438.197,482.367c-3.252-0.094-6.727-0.167-9.934,0.519c-1.032,0.221-4.874,2.245-5.544,1.484
			c-2.515-2.855,8.156-4.85,8.82-4.909c4.089-0.367,8.263-0.108,12.336,0.306c8.15,0.83,16.224,2.898,23.923,5.666
			c3.395,1.221,6.722,2.61,9.914,4.294c1.444,0.762,7.042,3.25,7.232,5.138c-0.03-0.906-9.494-3.577-10.8-3.966
			c-3.952-1.177-7.929-2.271-11.895-3.4C454.374,485.259,446.371,483.147,438.197,482.367z" style="opacity: 1;"></path>
		<path class="st0" d="M407.577,265.759c0.142-1.637,0.148-8.64,2.169-9.687c3.707-1.92,1.37,9.42,1.22,10.763
			c-0.627,5.605-1.709,11.037-3.053,16.513c-0.555,2.261-1.9,12.48-4.093,13.583c-0.488,0.245-0.037-14.706,0.279-16.29
			C405.096,275.647,406.514,270.741,407.577,265.759z" style="opacity: 1;"></path>
		<path class="st0" d="M426.006,354.168c-1.759-18.227-7.263-36.859-20.733-49.909c-0.57-0.552-4.826-3.736-4.299-4.774
			c1.132-2.229,9.953,4.525,10.859,5.31c8.372,7.255,12.928,18.536,15.819,28.953c3.36,12.108,4.615,24.842,4.041,37.383
			c-0.554,12.109-4.379,22.999-8.863,34.148c-6.275,15.599-23.523,47.996-2.125,59.138c10.367,5.398,24.165,4.179,35.477,5.93
			c6.107,0.945,12.574,2.138,18.071,5.098c2.403,1.294,4.79,2.903,6.287,5.249c0.627,0.983,1.179,5.062,1.427,5.32
			c-1.815-1.89-2.19-4.479-4.498-6.263c-3.405-2.632-7.889-3.774-12.045-4.569c-8.869-1.695-17.997-1.575-26.984-1.911
			c-16.452-0.615-33.221-5.326-34.389-24.696c-1.089-18.065,9.026-36.039,15.501-52.33
			C425.01,382.515,427.131,368.936,426.006,354.168z" style="opacity: 1;"></path>
		<path class="st0" d="M375.002,112.267c-10.974,2.497-15.852,15.775-11.346,25.577
			c3.828,8.328,13.775,4.468,20.718,3.226c8.123-1.453,19.048-4.462,12.186-14.96C392.49,119.882,382.504,113.085,375.002,112.267z" style="opacity: 1;"></path>
		<path class="st0" d="M410.238,145.072c-20.297-3.475-22.048,21.541-1.216,22.141
			C436.09,167.993,408.366,149.034,410.238,145.072z" style="opacity: 1;"></path>
		<path class="st0" d="M185.457,149.933c5.08,6.845,14.833,10.639,22.226,5.096c8.643-6.48,5.008-14.49,2.219-22.917
			c-0.408-1.233-0.619-4.734-1.381-5.596c-0.836-0.946-2.172-0.456-3.601,0.35c-2.577,1.453-4.23,4.206-5.684,6.674
			C195.559,139.785,192.485,146.781,185.457,149.933z" style="opacity: 1;"></path>
		<path class="st0" d="M178.169,154.794c1.891,10.584,4.395,26.748-12.245,23.937c-6.103-1.031-15.865-8.864-8.999-14.981
			C162.555,158.735,171.777,158.657,178.169,154.794z" style="opacity: 1;"></path>
		<path class="st0" d="M393.689,305.877c-8.794-0.265-27.592,4.26-29.146,14.845c-1.795,12.228,16.092,8.284,22.933,7.724
			c7.527-0.617,27.856,3.967,29.341-7.368C418.133,311.04,401.527,305.105,393.689,305.877z" style="opacity: 1;"></path>
		<path class="st0" d="M402.834,346.378c-8.544-1.902-23.961,9.951-18.525,19.318c4.348,7.491,18.712,0.706,25.17,0.131
			c8.165-0.727,20.981-0.096,16.48-12.056C423.003,345.91,409.5,336.331,402.834,346.378z" style="opacity: 1;"></path>
		<path class="st0" d="M200.038,309.102c8.487,4.399,50.2,14.754,35.227,25.511
			C218.177,346.89,182.127,316.982,200.038,309.102z" style="opacity: 1;"></path>
		<path class="st0" d="M192.748,339.478c9.837,11.891,24.453,12.051,37.483,16.245
			C236.852,380.212,175.266,370.72,192.748,339.478z" style="opacity: 1;"></path>
		<path class="st0" d="M345.842,67.311c-17.329-3.619,1.64,21.413,7.232,22.834
			C372.923,95.195,348.349,68.755,345.842,67.311z" style="opacity: 1;"></path>
	</g>
	<path class="st0" d="M405.924,253.45c-2.056,0.492-4.144,0.923-6.066,1.822c-0.319,0.149-1.565,1.129-2.81,2.181
		c-0.007,0.003-0.012,0.003-0.019,0.006c-0.915,0.343-1.561,0.995-2.031,1.814c-0.587,0.56-0.945,0.962-0.802,0.987
		c0.105,0.027,0.22,0.033,0.336,0.035c-0.053,0.15-0.104,0.301-0.148,0.458c-1.049,0.096-1.615,2.158-1.768,3.429
		c-0.321,2.664,0.769,5.473,2.397,7.541c2.621,3.779,4.141,3.368,7.254-0.026C406.687,266.878,406.385,259.535,405.924,253.45z" style="opacity: 1;"></path>
	<path class="st0" d="M62.706,67.01c-7.72-2.252-7.399-9.65-3.86-13.51c1.608-0.965,1.608,2.895,3.86,1.287
		c2.252-1.608,0.965-3.538-0.643-2.895c-1.608,0.643-1.93-0.643,0-4.182c1.93-3.538,3.86-5.79,5.147-4.825s3.217,3.86,1.287,3.538
		c-1.93-0.322-0.322,4.182,1.287,2.573c1.608-1.608,0.965-2.252,3.86-0.965c2.895,1.287,4.182,6.755,3.217,6.755
		c-0.965,0-2.252,1.93-2.252,1.93s1.287,1.608,1.93,0.322c0.643-1.287,2.252,0,2.252,2.895c0,2.895-2.573,9.65-9.007,9.972
		C63.35,70.227,62.706,67.01,62.706,67.01z" style="opacity: 1;"></path>
</g>
</svg>
